<?xml version="1.0" encoding="UTF-8"?>
<svg id="Layer_2" data-name="Layer 2" xmlns="http://www.w3.org/2000/svg" viewBox="0 0 109.44 12.17">
  <defs>
    <style>
      .cls-1 {
        fill: #fff;
      }

      .cls-2 {
        fill: #e4032e;
      }
    </style>
  </defs>
  <g id="Layer_1-2" data-name="Layer 1">
    <g>
      <rect class="cls-1" x="13.62" width=".48" height="12.17"/>
      <g>
        <path class="cls-1" d="M20.11,10.78l-3.14-8.72c-.19-.52,.08-1.09,.6-1.28,.52-.19,1.09,.08,1.28,.6l3.14,8.72c.19,.52-.08,1.09-.6,1.28-.52,.19-1.09-.08-1.28-.6h0Z"/>
        <path class="cls-1" d="M20.65,11.36c-.51-.22-.74-.81-.52-1.32L23.92,1.32c.22-.51,.81-.74,1.32-.52,.51,.22,.74,.81,.52,1.32l-3.79,8.72c-.22,.51-.81,.74-1.32,.52Z"/>
        <path class="cls-1" d="M27.04,10.78l-3.14-8.72c-.19-.52,.08-1.09,.6-1.28,.52-.19,1.09,.08,1.28,.6l3.14,8.72c.19,.52-.08,1.09-.6,1.28-.52,.19-1.1-.08-1.28-.6Z"/>
        <path class="cls-1" d="M27.63,11.38c-.52-.2-.78-.77-.58-1.29L30.34,1.37c.2-.52,.77-.78,1.29-.58,.52,.2,.78,.77,.58,1.29l-3.29,8.72c-.2,.52-.77,.78-1.29,.58Z"/>
        <path class="cls-1" d="M21.14,7.73l-1.01,2.31c-.19,.43,0,.81-.01,.76,.28,.68,1.11,.84,1.62,.36,.27-.26,.4-.67,.25-1.07l-.85-2.37"/>
        <path class="cls-1" d="M24.84,.72c-.7,0-1.18,.69-.94,1.34l.86,2.37,1.01-2.31c.29-.66-.2-1.4-.92-1.4"/>
        <path class="cls-1" d="M28.01,7.55l-.96,2.54c-.37,.97,.86,1.82,1.63,1.08,.28-.27,.39-.68,.25-1.06l-.92-2.55"/>
      </g>
      <g>
        <path class="cls-2" d="M41.53,7.09h-7.03c-.55,0-1-.45-1-1s.45-1,1-1h7.03c.55,0,1,.45,1,1s-.45,1-1,1Z"/>
        <path class="cls-1" d="M35.51,5.08h-1c-.55,0-1,.45-1,1s.45,1,1,1h1v-2"/>
        <path class="cls-1" d="M34.5,11.45c-.55,0-1-.45-1-1V1.73c0-.55,.45-1,1-1s1,.45,1,1V10.44c0,.55-.45,1-1,1Z"/>
        <path class="cls-1" d="M41.53,11.45c-.55,0-1-.45-1-1V1.73c0-.55,.45-1,1-1s1,.45,1,1V10.44c0,.55-.45,1-1,1Z"/>
        <path class="cls-1" d="M41.53,5.08h-1v2h1c.55,0,1-.45,1-1h0c0-.55-.45-1-1-1"/>
      </g>
      <g>
        <path class="cls-1" d="M51.7,2.73h-5.81c-.55,0-1-.45-1-1s.45-1,1-1h5.81c.55,0,1,.45,1,1s-.45,1-1,1Z"/>
        <path class="cls-1" d="M51.7,11.45h-5.81c-.55,0-1-.45-1-1s.45-1,1-1h5.81c.55,0,1,.45,1,1s-.45,1-1,1Z"/>
        <path class="cls-1" d="M45.89,11.45c-.55,0-1-.45-1-1V1.73c0-.55,.45-1,1-1s1,.45,1,1V10.44c0,.55-.45,1-1,1"/>
        <path class="cls-1" d="M45.89,.73c-.55,0-1,.45-1,1s.45,1,1,1h1V1.73c0-.55-.45-1-1-1"/>
        <path class="cls-1" d="M46.89,9.44h-1c-.55,0-1,.45-1,1s.45,1,1,1,1-.45,1-1v-1"/>
        <path class="cls-2" d="M50.85,5.08h-3.96v2h3.96c.55,0,1-.45,1-1s-.45-1-1-1"/>
        <path class="cls-1" d="M46.89,5.08h-1c-.55,0-1,.45-1,1s.45,1,1,1h1v-2"/>
      </g>
      <g>
        <path class="cls-1" d="M54.18,1.77V10.44c0,.55,.45,1,1,1s1-.45,1-1V1.72l-2,.05Z"/>
        <path class="cls-1" d="M54.42,2.37l1.77,2.08,5.62,6.63s0,0-.01-.01c.2,.24,.44,.32,.36,.28,.98,.45,1.87-.75,1.18-1.56l-1.77-2.08-5.62-6.62-1.54,1.29Z"/>
        <path class="cls-1" d="M63.58,10.34V1.72c0-.55-.45-1-1-1s-1,.45-1,1V10.44c0,.73,.71,.97,.58,.91,.77,.35,1.48-.31,1.42-1Z"/>
        <path class="cls-1" d="M61.57,7.71v2.73c0,.73,.71,.97,.58,.91,.98,.45,1.87-.75,1.18-1.56l-1.77-2.08"/>
        <path class="cls-1" d="M55.18,.72c-.85,0-1.32,1-.76,1.65l1.77,2.08V1.72c0-.55-.45-1-1-1"/>
      </g>
      <g>
        <path class="cls-1" d="M77.21,2.73h-7.31c-.55,0-1-.45-1-1s.45-1,1-1h7.31c.55,0,1,.45,1,1s-.45,1-1,1Z"/>
        <path class="cls-1" d="M73.55,11.45c-.55,0-1-.45-1-1V1.73c0-.55,.45-1,1-1s1,.45,1,1V10.44c0,.55-.45,1-1,1Z"/>
        <path class="cls-1" d="M73.55,.73c-.55,0-1,.45-1,1v1h2V1.73c0-.55-.45-1-1-1"/>
      </g>
      <g>
        <path class="cls-2" d="M87.39,7.09h-7.03c-.55,0-1-.45-1-1s.45-1,1-1h7.03c.55,0,1,.45,1,1s-.45,1-1,1Z"/>
        <path class="cls-1" d="M81.36,5.08h-1c-.55,0-1,.45-1,1s.45,1,1,1h1v-2"/>
        <path class="cls-1" d="M80.36,11.45c-.55,0-1-.45-1-1V1.73c0-.55,.45-1,1-1s1,.45,1,1V10.44c0,.55-.45,1-1,1Z"/>
        <path class="cls-1" d="M87.39,11.45c-.55,0-1-.45-1-1V1.73c0-.55,.45-1,1-1s1,.45,1,1V10.44c0,.55-.45,1-1,1Z"/>
        <path class="cls-1" d="M87.39,5.08h-1v2h1c.55,0,1-.45,1-1h0c0-.55-.45-1-1-1"/>
      </g>
      <g>
        <path class="cls-1" d="M97.56,2.73h-5.81c-.55,0-1-.45-1-1s.45-1,1-1h5.81c.55,0,1,.45,1,1s-.45,1-1,1Z"/>
        <path class="cls-1" d="M97.56,11.45h-5.81c-.55,0-1-.45-1-1s.45-1,1-1h5.81c.55,0,1,.45,1,1s-.45,1-1,1Z"/>
        <path class="cls-1" d="M91.75,11.45c-.55,0-1-.45-1-1V1.73c0-.55,.45-1,1-1s1,.45,1,1V10.44c0,.55-.45,1-1,1"/>
        <path class="cls-1" d="M91.75,.73c-.55,0-1,.45-1,1s.45,1,1,1h1V1.73c0-.55-.45-1-1-1"/>
        <path class="cls-1" d="M92.75,9.44h-1c-.55,0-1,.45-1,1s.45,1,1,1,1-.45,1-1v-1"/>
        <path class="cls-2" d="M96.71,5.08h-3.96v2h3.96c.55,0,1-.45,1-1s-.45-1-1-1"/>
        <path class="cls-1" d="M92.75,5.08h-1c-.55,0-1,.45-1,1s.45,1,1,1h1v-2"/>
      </g>
      <g>
        <path class="cls-1" d="M100.03,1.77V10.44c0,.55,.45,1,1,1s1-.45,1-1V1.72l-2,.05Z"/>
        <path class="cls-1" d="M100.27,2.37l1.77,2.08,5.62,6.63s0,0-.01-.01c.2,.24,.44,.32,.36,.28,.98,.45,1.87-.75,1.18-1.56l-1.77-2.08-5.62-6.62-1.54,1.29Z"/>
        <path class="cls-1" d="M109.43,10.34V1.72c0-.55-.45-1-1-1s-1,.45-1,1V10.44c0,.73,.71,.97,.58,.91,.77,.35,1.48-.31,1.42-1Z"/>
        <path class="cls-1" d="M107.43,7.71v2.73c0,.73,.71,.97,.58,.91,.98,.45,1.87-.75,1.18-1.56l-1.77-2.08"/>
        <path class="cls-1" d="M101.04,.72c-.85,0-1.32,1-.76,1.65l1.77,2.08V1.72c0-.55-.45-1-1-1"/>
      </g>
      <g>
        <path class="cls-1" d="M2.66,6.65c-.21-.51,.04-1.1,.56-1.3,.64-.26,1.69-.81,1.54-1.61-.11-.59-.73-1.03-1.07-1.03-.55,0-1-.45-1-1s.45-1,1-1c2.75,0,5.17,4.54,.28,6.5-.51,.21-1.1-.04-1.3-.56Z"/>
        <path class="cls-1" d="M3.59,8.69c-.55,0-1-.45-1-1v-1.4c0-.55,.45-1,1-1s1,.45,1,1v1.4c0,.55-.45,1-1,1Z"/>
        <path class="cls-1" d="M.52,4.07C.03,3.8-.14,3.19,.13,2.71,.64,1.78,1.51,.71,3.68,.71c.55,0,1,.45,1,1s-.45,1-1,1c-1.17,0-1.5,.42-1.8,.97-.27,.48-.88,.66-1.36,.39H.52Z"/>
        <path class="cls-2" d="M3.59,11.45c-.55,0-1-.45-1-1v-.2c0-.55,.45-1,1-1s1,.45,1,1v.2c0,.55-.45,1-1,1Z"/>
        <path class="cls-1" d="M3.59,5.28c-.13,0-.25,.02-.37,.07-1.02,.41-.72,1.93,.37,1.93,.17,0,.36-.03,1-.36v-.64c0-.55-.45-1-1-1"/>
        <path class="cls-1" d="M3.68,.71c-.55,0-1,.45-1,1s.45,1,1,1,1-.45,1-1-.45-1-1-1h0"/>
      </g>
      <g>
        <path class="cls-2" d="M8.82,8.14c-.55,0-1-.45-1-1V1.71c0-.55,.45-1,1-1s1,.45,1,1V7.14c0,.55-.45,1-1,1Z"/>
        <path class="cls-1" d="M8.82,11.45c-.55,0-1-.45-1-1v-.2c0-.55,.45-1,1-1s1,.45,1,1v.2c0,.55-.45,1-1,1Z"/>
      </g>
    </g>
  </g>
</svg>